<mxfile host="app.diagrams.net" modified="2024-05-02T00:22:08.132Z" agent="Mozilla/5.0 (Windows NT 10.0; Win64; x64) AppleWebKit/537.36 (KHTML, like Gecko) Chrome/124.0.0.0 Safari/537.36" etag="o8v685qUlS7TiDgr3Jkn" version="24.3.1" type="device">
  <diagram id="bc47vRQSer-DN1HRI0ml" name="Page-1">
    <mxGraphModel dx="882" dy="578" grid="1" gridSize="10" guides="1" tooltips="1" connect="1" arrows="1" fold="1" page="1" pageScale="1" pageWidth="850" pageHeight="1100" math="0" shadow="0">
      <root>
        <mxCell id="0" />
        <mxCell id="1" parent="0" />
        <mxCell id="OXltdeSApc8HWGbgr6Wj-12" style="edgeStyle=orthogonalEdgeStyle;rounded=0;orthogonalLoop=1;jettySize=auto;html=1;exitX=1;exitY=0.5;exitDx=0;exitDy=0;" edge="1" parent="1" source="OXltdeSApc8HWGbgr6Wj-1" target="OXltdeSApc8HWGbgr6Wj-3">
          <mxGeometry relative="1" as="geometry" />
        </mxCell>
        <mxCell id="OXltdeSApc8HWGbgr6Wj-1" value="Rule config file" style="rounded=1;whiteSpace=wrap;html=1;" vertex="1" parent="1">
          <mxGeometry x="40" y="80" width="80" height="40" as="geometry" />
        </mxCell>
        <mxCell id="OXltdeSApc8HWGbgr6Wj-14" style="edgeStyle=orthogonalEdgeStyle;rounded=0;orthogonalLoop=1;jettySize=auto;html=1;exitX=1;exitY=0.5;exitDx=0;exitDy=0;entryX=0;entryY=0.5;entryDx=0;entryDy=0;" edge="1" parent="1" source="OXltdeSApc8HWGbgr6Wj-2" target="OXltdeSApc8HWGbgr6Wj-4">
          <mxGeometry relative="1" as="geometry" />
        </mxCell>
        <mxCell id="OXltdeSApc8HWGbgr6Wj-2" value="Alert store" style="rounded=1;whiteSpace=wrap;html=1;" vertex="1" parent="1">
          <mxGeometry x="40" y="200" width="80" height="40" as="geometry" />
        </mxCell>
        <mxCell id="OXltdeSApc8HWGbgr6Wj-15" style="edgeStyle=orthogonalEdgeStyle;rounded=0;orthogonalLoop=1;jettySize=auto;html=1;exitX=0.5;exitY=1;exitDx=0;exitDy=0;entryX=0.5;entryY=0;entryDx=0;entryDy=0;" edge="1" parent="1" source="OXltdeSApc8HWGbgr6Wj-3" target="OXltdeSApc8HWGbgr6Wj-4">
          <mxGeometry relative="1" as="geometry" />
        </mxCell>
        <mxCell id="OXltdeSApc8HWGbgr6Wj-3" value="Cache" style="rounded=1;whiteSpace=wrap;html=1;" vertex="1" parent="1">
          <mxGeometry x="200" y="80" width="80" height="40" as="geometry" />
        </mxCell>
        <mxCell id="OXltdeSApc8HWGbgr6Wj-13" style="edgeStyle=orthogonalEdgeStyle;rounded=0;orthogonalLoop=1;jettySize=auto;html=1;exitX=0;exitY=0.5;exitDx=0;exitDy=0;entryX=1;entryY=0.5;entryDx=0;entryDy=0;" edge="1" parent="1" source="OXltdeSApc8HWGbgr6Wj-4" target="OXltdeSApc8HWGbgr6Wj-2">
          <mxGeometry relative="1" as="geometry" />
        </mxCell>
        <mxCell id="OXltdeSApc8HWGbgr6Wj-16" style="edgeStyle=orthogonalEdgeStyle;rounded=0;orthogonalLoop=1;jettySize=auto;html=1;exitX=0.5;exitY=0;exitDx=0;exitDy=0;" edge="1" parent="1" source="OXltdeSApc8HWGbgr6Wj-4" target="OXltdeSApc8HWGbgr6Wj-3">
          <mxGeometry relative="1" as="geometry" />
        </mxCell>
        <mxCell id="OXltdeSApc8HWGbgr6Wj-17" style="edgeStyle=orthogonalEdgeStyle;rounded=0;orthogonalLoop=1;jettySize=auto;html=1;exitX=0.5;exitY=1;exitDx=0;exitDy=0;entryX=0.5;entryY=0;entryDx=0;entryDy=0;" edge="1" parent="1" source="OXltdeSApc8HWGbgr6Wj-4" target="OXltdeSApc8HWGbgr6Wj-5">
          <mxGeometry relative="1" as="geometry" />
        </mxCell>
        <mxCell id="OXltdeSApc8HWGbgr6Wj-19" style="edgeStyle=orthogonalEdgeStyle;rounded=0;orthogonalLoop=1;jettySize=auto;html=1;exitX=1;exitY=0.5;exitDx=0;exitDy=0;entryX=0;entryY=0.5;entryDx=0;entryDy=0;" edge="1" parent="1" source="OXltdeSApc8HWGbgr6Wj-4" target="OXltdeSApc8HWGbgr6Wj-6">
          <mxGeometry relative="1" as="geometry" />
        </mxCell>
        <mxCell id="OXltdeSApc8HWGbgr6Wj-4" value="Alert manager" style="rounded=1;whiteSpace=wrap;html=1;" vertex="1" parent="1">
          <mxGeometry x="200" y="200" width="80" height="40" as="geometry" />
        </mxCell>
        <mxCell id="OXltdeSApc8HWGbgr6Wj-18" style="edgeStyle=orthogonalEdgeStyle;rounded=0;orthogonalLoop=1;jettySize=auto;html=1;exitX=0.5;exitY=0;exitDx=0;exitDy=0;entryX=0.5;entryY=1;entryDx=0;entryDy=0;" edge="1" parent="1" source="OXltdeSApc8HWGbgr6Wj-5" target="OXltdeSApc8HWGbgr6Wj-4">
          <mxGeometry relative="1" as="geometry" />
        </mxCell>
        <mxCell id="OXltdeSApc8HWGbgr6Wj-5" value="Query service" style="rounded=1;whiteSpace=wrap;html=1;" vertex="1" parent="1">
          <mxGeometry x="200" y="320" width="80" height="40" as="geometry" />
        </mxCell>
        <mxCell id="OXltdeSApc8HWGbgr6Wj-20" style="edgeStyle=orthogonalEdgeStyle;rounded=0;orthogonalLoop=1;jettySize=auto;html=1;exitX=1;exitY=0.5;exitDx=0;exitDy=0;entryX=0;entryY=0.5;entryDx=0;entryDy=0;" edge="1" parent="1" source="OXltdeSApc8HWGbgr6Wj-6" target="OXltdeSApc8HWGbgr6Wj-7">
          <mxGeometry relative="1" as="geometry" />
        </mxCell>
        <mxCell id="OXltdeSApc8HWGbgr6Wj-6" value="Kafka" style="rounded=1;whiteSpace=wrap;html=1;" vertex="1" parent="1">
          <mxGeometry x="360" y="200" width="80" height="40" as="geometry" />
        </mxCell>
        <mxCell id="OXltdeSApc8HWGbgr6Wj-21" style="edgeStyle=orthogonalEdgeStyle;rounded=0;orthogonalLoop=1;jettySize=auto;html=1;exitX=1;exitY=0.5;exitDx=0;exitDy=0;entryX=0;entryY=0.5;entryDx=0;entryDy=0;" edge="1" parent="1" source="OXltdeSApc8HWGbgr6Wj-7" target="OXltdeSApc8HWGbgr6Wj-9">
          <mxGeometry relative="1" as="geometry" />
        </mxCell>
        <mxCell id="OXltdeSApc8HWGbgr6Wj-22" style="edgeStyle=orthogonalEdgeStyle;rounded=0;orthogonalLoop=1;jettySize=auto;html=1;exitX=0.5;exitY=0;exitDx=0;exitDy=0;entryX=0;entryY=0.5;entryDx=0;entryDy=0;" edge="1" parent="1" source="OXltdeSApc8HWGbgr6Wj-7" target="OXltdeSApc8HWGbgr6Wj-8">
          <mxGeometry relative="1" as="geometry" />
        </mxCell>
        <mxCell id="OXltdeSApc8HWGbgr6Wj-23" style="edgeStyle=orthogonalEdgeStyle;rounded=0;orthogonalLoop=1;jettySize=auto;html=1;exitX=0.5;exitY=1;exitDx=0;exitDy=0;entryX=0;entryY=0.5;entryDx=0;entryDy=0;" edge="1" parent="1" source="OXltdeSApc8HWGbgr6Wj-7" target="OXltdeSApc8HWGbgr6Wj-10">
          <mxGeometry relative="1" as="geometry" />
        </mxCell>
        <mxCell id="OXltdeSApc8HWGbgr6Wj-7" value="Alert consumer" style="rounded=1;whiteSpace=wrap;html=1;" vertex="1" parent="1">
          <mxGeometry x="520" y="200" width="80" height="40" as="geometry" />
        </mxCell>
        <mxCell id="OXltdeSApc8HWGbgr6Wj-8" value="Email" style="rounded=1;whiteSpace=wrap;html=1;" vertex="1" parent="1">
          <mxGeometry x="680" y="80" width="80" height="40" as="geometry" />
        </mxCell>
        <mxCell id="OXltdeSApc8HWGbgr6Wj-9" value="Text" style="rounded=1;whiteSpace=wrap;html=1;" vertex="1" parent="1">
          <mxGeometry x="680" y="200" width="80" height="40" as="geometry" />
        </mxCell>
        <mxCell id="OXltdeSApc8HWGbgr6Wj-10" value="HTTPS endpoints" style="rounded=1;whiteSpace=wrap;html=1;" vertex="1" parent="1">
          <mxGeometry x="680" y="320" width="80" height="40" as="geometry" />
        </mxCell>
      </root>
    </mxGraphModel>
  </diagram>
</mxfile>
